<svg width="16" height="24" viewBox="0 0 16 24" fill="none" xmlns="http://www.w3.org/2000/svg">
<g id="Figma &#34;F&#34; icon logo symbol">
<path id="Rectangle 54" d="M8.1875 12.2813C8.1875 10.1584 9.90841 8.4375 12.0312 8.4375V8.4375C14.1541 8.4375 15.875 10.1584 15.875 12.2813V12.2813C15.875 14.4041 14.1541 16.125 12.0312 16.125V16.125C9.90841 16.125 8.1875 14.4041 8.1875 12.2813V12.2813Z" fill="#1ABCFE"/>
<path id="Rectangle 55" d="M0.5 19.9688C0.5 17.8459 2.22091 16.125 4.34375 16.125H8.1875V19.9688C8.1875 22.0916 6.46659 23.8125 4.34375 23.8125V23.8125C2.22091 23.8125 0.5 22.0916 0.5 19.9688V19.9688Z" fill="#0ACF83"/>
<path id="Rectangle 55_2" d="M8.1875 0.75V8.4375H12.0313C14.1541 8.4375 15.875 6.71659 15.875 4.59375V4.59375C15.875 2.47091 14.1541 0.75 12.0313 0.75L8.1875 0.75Z" fill="#FF7262"/>
<path id="Rectangle 55_3" d="M0.5 4.59375C0.5 6.71659 2.22091 8.4375 4.34375 8.4375L8.1875 8.4375V0.75H4.34375C2.22091 0.75 0.5 2.47091 0.5 4.59375V4.59375Z" fill="#F24E1E"/>
<path id="Rectangle 55_4" d="M0.5 12.2812C0.5 14.4041 2.22091 16.125 4.34375 16.125H8.1875V8.4375H4.34375C2.22091 8.4375 0.5 10.1584 0.5 12.2812V12.2812Z" fill="#A259FF"/>
</g>
</svg>
