<svg width="151" height="35" viewBox="0 0 151 35" fill="none" xmlns="http://www.w3.org/2000/svg">
<ellipse cx="20.5" cy="17.5" rx="20.5" ry="13.5" fill="url(#paint0_linear_239_173)"/>
<rect y="18" width="41" height="13" fill="url(#paint1_linear_239_173)"/>
<circle cx="6" cy="5" r="5" fill="url(#paint2_linear_239_173)"/>
<circle cx="37" cy="5" r="5" fill="url(#paint3_linear_239_173)"/>
<circle cx="13.5" cy="12.5" r="2.5" fill="black"/>
<circle cx="29.5" cy="12.5" r="2.5" fill="black"/>
<circle cx="20.5" cy="19.5" r="1.5" fill="black"/>
<path d="M53.56 5.74L53.96 5.2H56.32L58.54 16.4H58.76L61.14 6.52H63.98L66.36 16.4H66.58L68.8 5.2H71.16L71.56 5.74L68.86 19H64.28L62.56 11.7L60.84 19H56.26L53.56 5.74ZM73.7611 19V5.2H83.2011V7.8H76.6411V10.6H82.6011V13.2H76.6411V16.4H83.2011V19H73.7611ZM85.8314 19V5.2H92.3514C94.5914 5.2 95.7114 6.32 95.7114 8.56V9.76C95.7114 10.2133 95.5781 10.6 95.3114 10.92L94.6114 11.76L95.4514 12.46C95.8914 12.82 96.1114 13.3533 96.1114 14.06V15.64C96.1114 17.88 94.9914 19 92.7514 19H85.8314ZM88.7114 16.4H92.6314C93.0314 16.4 93.2314 16.2 93.2314 15.8V13.8C93.2314 13.4 93.0314 13.2 92.6314 13.2H88.7114V16.4ZM88.7114 10.6H92.2314C92.6314 10.6 92.8314 10.4 92.8314 10V8.4C92.8314 8 92.6314 7.8 92.2314 7.8H88.7114V10.6Z" fill="white"/>
<path d="M99.0783 19V5.2H105.358C107.345 5.2 108.338 6.19333 108.338 8.18V9.6C108.338 10.0533 108.205 10.44 107.938 10.76L107.238 11.6L108.078 12.3C108.518 12.66 108.738 13.1933 108.738 13.9V16.02C108.738 18.0067 107.745 19 105.758 19H99.0783ZM100.418 17.78H105.838C106.878 17.78 107.398 17.26 107.398 16.22V13.9C107.398 12.8467 106.878 12.32 105.838 12.32H100.418V17.78ZM100.418 11.12H105.438C106.478 11.12 106.998 10.5933 106.998 9.54V7.98C106.998 6.94 106.478 6.42 105.438 6.42H100.418V11.12ZM111.91 19V5.2H120.79V6.42H113.25V11.12H120.19V12.32H113.25V17.78H120.79V19H111.91ZM122.189 18.68L126.849 5.2H129.129L133.769 18.68L133.569 19H132.469L131.249 15.32H124.709L123.489 19H122.409L122.189 18.68ZM125.149 14.12H130.829L128.249 6.42H127.729L125.149 14.12ZM136.012 19V5.2H142.492C144.479 5.2 145.472 6.19333 145.472 8.18V10.36C145.472 12.1067 144.699 13.0733 143.152 13.26L145.872 18.66L145.692 19H144.592L141.712 13.32H137.352V19H136.012ZM137.352 12.12H142.572C143.612 12.12 144.132 11.5933 144.132 10.54V7.98C144.132 6.94 143.612 6.42 142.572 6.42H137.352V12.12Z" fill="url(#paint4_linear_239_173)"/>
<path d="M117.63 30.79V30.6H119.95C120.557 30.6 120.86 30.3033 120.86 29.71C120.86 29.11 120.62 28.77 120.14 28.69L118.88 28.48C118.047 28.34 117.63 27.9067 117.63 27.18C117.63 26.2933 118.11 25.85 119.07 25.85H120.8L121.08 26.06V26.25H119C118.387 26.25 118.08 26.5467 118.08 27.14C118.08 27.6533 118.333 27.9533 118.84 28.04L120.1 28.25C120.913 28.3833 121.32 28.8533 121.32 29.66C121.32 30.5533 120.837 31 119.87 31H117.91L117.63 30.79ZM122.761 29.57V24.1H123.211V25.85H125.221V26.25H123.211V29.67C123.211 30.29 123.521 30.6 124.141 30.6H125.321V30.79L125.041 31H124.191C123.238 31 122.761 30.5233 122.761 29.57ZM126.492 29.57V25.85H126.942V29.67C126.942 30.29 127.252 30.6 127.872 30.6H130.192V25.85H130.642V31H127.922C126.968 31 126.492 30.5233 126.492 29.57ZM132.262 29.57V27.28C132.262 26.3267 132.739 25.85 133.692 25.85H135.962V23.6H136.412V31H133.692C132.739 31 132.262 30.5233 132.262 29.57ZM132.712 29.67C132.712 30.29 133.022 30.6 133.642 30.6H135.962V26.25H133.642C133.022 26.25 132.712 26.56 132.712 27.18V29.67ZM138.064 24.82V24.13H138.614V24.82H138.064ZM138.114 31V25.85H138.564V31H138.114ZM140.182 29.57V27.28C140.182 26.3267 140.659 25.85 141.612 25.85H143.012C143.959 25.85 144.432 26.3267 144.432 27.28V29.57C144.432 30.5233 143.959 31 143.012 31H141.612C140.659 31 140.182 30.5233 140.182 29.57ZM140.632 29.67C140.632 30.29 140.942 30.6 141.562 30.6H143.052C143.672 30.6 143.982 30.29 143.982 29.67V27.18C143.982 26.56 143.672 26.25 143.052 26.25H141.562C140.942 26.25 140.632 26.56 140.632 27.18V29.67Z" fill="white"/>
<defs>
<linearGradient id="paint0_linear_239_173" x1="20.5" y1="4" x2="59" y2="4" gradientUnits="userSpaceOnUse">
<stop stop-color="#3ADBB4"/>
<stop offset="1" stop-color="#B3FFAB"/>
</linearGradient>
<linearGradient id="paint1_linear_239_173" x1="20.5" y1="18" x2="46" y2="18" gradientUnits="userSpaceOnUse">
<stop stop-color="#3ADBB4"/>
<stop offset="1" stop-color="#B3FFAB"/>
</linearGradient>
<linearGradient id="paint2_linear_239_173" x1="6" y1="0" x2="29.5" y2="0" gradientUnits="userSpaceOnUse">
<stop stop-color="#3ADBB4"/>
<stop offset="1" stop-color="#B3FFAB"/>
</linearGradient>
<linearGradient id="paint3_linear_239_173" x1="37" y1="0" x2="51" y2="0" gradientUnits="userSpaceOnUse">
<stop stop-color="#3ADBB4"/>
<stop offset="1" stop-color="#B3FFAB"/>
</linearGradient>
<linearGradient id="paint4_linear_239_173" x1="102" y1="1" x2="153.5" y2="1" gradientUnits="userSpaceOnUse">
<stop stop-color="#3ADBB4" stop-opacity="0.8"/>
<stop offset="1" stop-color="#B3FFAB"/>
</linearGradient>
</defs>
</svg>
