<svg width="60" height="45" viewBox="0 0 60 45" fill="none" xmlns="http://www.w3.org/2000/svg">
<g id="money-back-guarantee-icon 1" clip-path="url(#clip0_160_85)">
<path id="Vector" d="M33.8175 1.06655C34.4433 1.40631 35.0879 1.87877 35.7804 2.3854C36.65 3.02171 37.6027 3.71834 38.6492 4.23201L38.682 4.24809C39.5691 4.66827 40.8488 4.71049 42.1906 4.75271C44.6843 4.83213 47.3773 4.91858 49.1562 7.18536C50.7148 9.16968 50.8308 10.7137 50.9422 12.2276L50.9527 12.3573C51.0089 13.1051 51.1132 13.8219 51.4226 14.5939C51.7343 15.3729 52.2582 16.2244 53.157 17.2427C54.7882 19.0943 55.7808 20.6534 56.157 22.0929C56.5531 23.5977 56.2871 24.9477 55.3882 26.3189C54.7402 27.309 53.7523 28.0348 52.8804 28.6741C52.223 29.1566 51.6406 29.5838 51.4543 29.9548L51.4285 30C50.9797 30.9168 50.9644 31.7722 50.9492 32.6508C50.9281 33.841 50.9058 35.0724 49.9871 36.6244C49.4035 37.6126 48.657 38.4349 47.757 39.0943C46.8476 39.7608 45.7824 40.2604 44.5683 40.5951C43.4937 40.8916 42.48 40.8303 41.5179 40.771C40.7047 40.7207 39.9324 40.6735 39.3371 40.8876C38.1054 41.3339 36.9992 42.0939 35.9609 42.8076C34.8136 43.5947 33.739 44.3335 32.5484 44.6512C31.68 44.8834 30.7882 45 29.9011 45C29.0129 45 28.1211 44.8834 27.2515 44.6522L27.2164 44.6411C26.0398 44.3185 24.9757 43.5877 23.8414 42.8086C22.8031 42.0939 21.6968 41.3339 20.4652 40.8906C19.864 40.6735 19.0941 40.7218 18.2832 40.771C17.3211 40.8303 16.3086 40.8916 15.2328 40.5951C14.0199 40.2604 12.9547 39.7608 12.0453 39.0943C11.1453 38.4349 10.3988 37.6126 9.8152 36.6244C8.89645 35.0724 8.87419 33.841 8.85309 32.6508C8.83786 31.7612 8.82145 30.8947 8.34918 29.9548L8.33278 29.9196C8.12887 29.5607 7.56051 29.1425 6.92067 28.6741C6.04997 28.0348 5.0609 27.31 4.41286 26.3189C3.5152 24.9477 3.24801 23.5977 3.64411 22.0929C4.02145 20.6534 5.01286 19.0943 6.64411 17.2427C7.54293 16.2234 8.06793 15.3719 8.37965 14.5939C8.68903 13.8219 8.79215 13.1051 8.84957 12.3573L8.85895 12.2256C8.97145 10.7127 9.08747 9.16968 10.6449 7.18536C12.4238 4.91858 15.1168 4.83213 17.6117 4.75271C18.9699 4.71049 20.2625 4.66727 21.1519 4.23201L21.1882 4.21492C22.2148 3.70728 23.1593 3.01669 24.0218 2.3844C24.7132 1.87877 25.359 1.40631 25.9836 1.06655C27.289 0.35585 28.5898 0 29.9011 0C31.2113 0 32.5132 0.35585 33.8175 1.06655Z" fill="#CF9114"/>
<path id="Vector_2" fill-rule="evenodd" clip-rule="evenodd" d="M33.4406 1.57727C34.8222 2.32918 36.3784 3.81491 38.3003 4.75681C41.0027 6.0817 46.0089 4.25419 48.573 7.52118C50.0683 9.42609 50.1386 10.9199 50.2499 12.3955C50.3706 13.9878 50.6964 15.4524 52.5948 17.6066C55.7402 21.1742 56.3952 23.5495 54.7745 26.0234C53.6706 27.7102 51.3445 28.647 50.8054 29.7166C49.6605 31.9894 50.9273 33.7033 49.3593 36.3531C48.2706 38.1917 46.5913 39.403 44.3542 40.0212C42.4675 40.5419 40.5749 39.788 39.0644 40.3328C36.4101 41.2898 34.4519 43.5133 32.3402 44.0753C30.7429 44.5005 29.0589 44.5005 27.4628 44.0753C25.3499 43.5133 23.3929 41.2898 20.7386 40.3328C19.2281 39.788 17.3343 40.5419 15.4488 40.0212C13.2116 39.403 11.5312 38.1917 10.4437 36.3531C8.87454 33.7033 10.1413 31.9894 8.99641 29.7166C8.45852 28.647 6.13235 27.7102 5.02727 26.0234C3.40774 23.5495 4.06282 21.1742 7.20696 17.6066C9.10657 15.4524 9.43118 13.9878 9.55188 12.3955C9.66321 10.9199 9.73469 9.42609 11.2288 7.52118C13.7929 4.25419 18.7991 6.0817 21.5027 4.75681C23.4245 3.81491 24.9796 2.32918 26.3624 1.57727C28.7413 0.281534 31.0616 0.281534 33.4406 1.57727Z" fill="url(#paint0_linear_160_85)"/>
<path id="Vector_3" d="M29.9016 5.49756C35.3766 5.49756 40.3348 7.40146 43.923 10.4795C47.5102 13.5575 49.7297 17.8096 49.7297 22.506C49.7297 27.2024 47.5102 31.4555 43.923 34.5325C40.3348 37.6105 35.3766 39.5144 29.9016 39.5144C24.4266 39.5144 19.4684 37.6105 15.8801 34.5325C12.293 31.4555 10.0723 27.2024 10.0723 22.506C10.0723 17.8096 12.293 13.5575 15.8813 10.4795C19.4684 7.40146 24.4266 5.49756 29.9016 5.49756Z" fill="black"/>
<path id="Vector_4" fill-rule="evenodd" clip-rule="evenodd" d="M29.9018 5.69678C40.724 5.69678 49.4978 13.2229 49.4978 22.5062C49.4978 31.7905 40.724 39.3156 29.9018 39.3156C19.0795 39.3156 10.3057 31.7905 10.3057 22.5062C10.3057 13.2229 19.0795 5.69678 29.9018 5.69678Z" fill="url(#paint1_linear_160_85)"/>
<path id="Vector_5" d="M18.4371 30.535C18.5133 30.5289 18.5906 30.5551 18.641 30.6114L19.384 31.4397C19.4613 31.5261 19.4438 31.6508 19.343 31.7171L18.0035 32.6007C17.925 32.652 17.8195 32.654 17.741 32.6128C17.3557 32.4082 17.0167 32.1457 16.7402 31.8377C16.548 31.6246 16.4145 31.4196 16.3418 31.2276C16.2621 31.0195 16.2516 30.8225 16.3078 30.6385L16.3102 30.6315C16.3383 30.544 16.3781 30.4586 16.4285 30.3761C16.4777 30.2957 16.5422 30.2143 16.6172 30.1379C16.6863 30.0665 16.7707 29.9901 16.868 29.9127C16.9641 29.8373 17.0719 29.7589 17.1891 29.6825C17.3074 29.6051 17.4223 29.5348 17.5324 29.4754C17.6449 29.4141 17.7516 29.3639 17.8488 29.3267C17.9543 29.2865 18.0633 29.2553 18.1723 29.2362C18.2801 29.2171 18.3914 29.2081 18.5027 29.2101C18.7301 29.2141 18.9551 29.2804 19.1789 29.4111L19.1895 29.4171C19.3934 29.5378 19.5996 29.7147 19.8047 29.9439L19.9453 30.1168L20.1012 30.3339C20.1973 30.4857 20.2535 30.5772 20.3309 30.732C20.3695 30.8295 20.3133 30.935 20.2066 30.9763L19.5082 31.2748C19.3945 31.3231 19.2551 31.2839 19.1988 31.1863L19.0148 30.9099L18.8262 30.6767L18.6621 30.5088L18.5777 30.4435L18.4371 30.535ZM21.4922 31.7201L20.1504 33.1516L20.3332 33.2722L21.6727 31.8438C21.6917 31.8235 21.7151 31.8066 21.7417 31.7942C21.7683 31.7817 21.7975 31.7738 21.8277 31.771C21.8578 31.7682 21.8883 31.7705 21.9174 31.7778C21.9465 31.7851 21.9736 31.7973 21.9973 31.8136L22.7859 32.3574C22.8844 32.4258 22.8996 32.5504 22.8199 32.6359L21.7078 33.8231C21.6164 33.9216 21.5262 34.01 21.443 34.0864C21.3563 34.1648 21.2742 34.2312 21.1969 34.2855C21.116 34.3428 21.0293 34.391 20.9391 34.4292C20.7516 34.5086 20.5512 34.5448 20.3426 34.5217C20.1211 34.4966 19.9195 34.4071 19.7344 34.3036C19.6313 34.2463 19.5211 34.1779 19.4074 34.0995C19.2938 34.0211 19.1918 33.9437 19.1051 33.8693C18.9504 33.7406 18.8004 33.5838 18.7277 33.4079C18.6586 33.238 18.6574 33.0641 18.7055 32.8912C18.7301 32.8078 18.7664 32.7243 18.8145 32.6429C18.8578 32.5695 18.9152 32.4861 18.9879 32.3956C19.0559 32.3092 19.1379 32.2147 19.2305 32.1152L20.3426 30.927C20.4223 30.8426 20.5688 30.8295 20.6672 30.8978L21.457 31.4407C21.5555 31.509 21.5719 31.6347 21.4922 31.7201ZM22.248 35.5601L21.2859 35.1811C21.2306 35.1592 21.1876 35.1195 21.1664 35.0705C21.1451 35.0216 21.1472 34.9674 21.1723 34.9198L21.2027 34.8765L23.2676 32.7052C23.3379 32.6309 23.4598 32.6118 23.5547 32.656L24.9621 33.2099C25.0605 33.2481 25.1109 33.3385 25.0934 33.425L24.5203 36.1833C24.498 36.2909 24.3762 36.3623 24.2508 36.3432L24.1746 36.319L23.2266 35.9461C23.1791 35.9274 23.1404 35.8954 23.1168 35.8555C23.0932 35.8155 23.086 35.7699 23.0965 35.726L23.1621 35.4475L22.7379 35.2796L22.534 35.5048C22.466 35.5812 22.3441 35.6023 22.248 35.5601ZM27.8672 37.0297L26.7691 36.8739C26.673 36.8598 26.6004 36.7965 26.5805 36.7181L26.4656 36.3361L26.4105 36.6216C26.4057 36.6472 26.395 36.6718 26.379 36.6939C26.3631 36.7159 26.3422 36.7351 26.3176 36.7502C26.293 36.7654 26.2651 36.7762 26.2356 36.782C26.2061 36.7879 26.1756 36.7887 26.1457 36.7845L25.1473 36.6427C25.0869 36.6342 25.0329 36.6055 24.9971 36.5629C24.9613 36.5204 24.9466 36.4674 24.9563 36.4155L25.4742 33.7406C25.479 33.7149 25.4897 33.6903 25.5056 33.6682C25.5215 33.646 25.5424 33.6268 25.567 33.6115C25.5916 33.5963 25.6195 33.5854 25.649 33.5794C25.6785 33.5735 25.7091 33.5726 25.7391 33.5768L27.3246 33.8019C27.7395 33.8633 28.0395 34.007 28.2234 34.2302C28.4074 34.4553 28.4637 34.7519 28.3934 35.1158L28.3922 35.1238C28.3453 35.3641 28.2598 35.5621 28.1367 35.7149C28.0488 35.8235 27.9434 35.9099 27.8215 35.9732L28.1238 36.7734C28.1362 36.8057 28.1386 36.8401 28.1308 36.8735C28.1231 36.9068 28.1055 36.9378 28.0797 36.9636C28.0539 36.9893 28.0208 37.009 27.9836 37.0206C27.9463 37.0321 27.9063 37.0353 27.8672 37.0297ZM29.7094 37.073L28.6594 37.088C28.5316 37.089 28.4262 37.0026 28.425 36.894L28.4332 36.8387L29.1984 34.1196C29.223 34.0311 29.3156 33.9708 29.4176 33.9688L30.9809 33.9457C31.091 33.9447 31.1848 34.01 31.2094 34.0975L32.0789 36.7915C32.1129 36.897 32.0414 37.0056 31.9184 37.0348L31.8609 37.0418L30.7934 37.0569C30.682 37.0589 30.5871 36.9915 30.5637 36.9021L30.4852 36.6317L30.0188 36.6387L29.9496 36.9161C29.925 37.0126 29.8219 37.079 29.7094 37.073ZM34.3875 36.3964L33.8168 35.9994L33.9527 36.3974C33.9891 36.502 33.9188 36.6126 33.7969 36.6437L32.8254 36.888C32.7035 36.9192 32.5746 36.8588 32.5383 36.7543L31.6465 34.1518C31.6113 34.0472 31.6816 33.9366 31.8035 33.9055L32.7164 33.6753C32.7961 33.6562 32.8781 33.6743 32.9355 33.7185L33.5074 34.1156L33.3703 33.7175C33.334 33.613 33.4043 33.5024 33.5273 33.4712L34.4977 33.226C34.5762 33.2069 34.6582 33.2239 34.7156 33.2672C34.7297 33.2139 34.7707 33.1656 34.8316 33.1375L37.0207 32.1403C37.0512 32.1262 37.084 32.1182 37.1168 32.1172L37.166 32.0619L38.8219 30.7863C38.9168 30.7139 39.0633 30.7199 39.1488 30.8013L39.6176 31.4155C39.6715 31.4869 39.6645 31.5784 39.607 31.6427C39.6844 31.6307 39.7664 31.6518 39.8227 31.705L40.3137 32.1725C40.3523 32.2097 40.3723 32.2569 40.3723 32.3042L40.4121 32.273C40.507 32.1996 40.6535 32.2067 40.7391 32.2871L41.2805 32.8038C41.366 32.8852 41.3578 33.0118 41.2641 33.0842L39.5883 34.3749C39.4934 34.4483 39.3469 34.4423 39.2613 34.3609L37.7379 32.9053C37.7484 32.9847 37.7039 33.0641 37.6172 33.1033L37.173 33.3064L38.168 34.9127C38.2277 35.0092 38.1844 35.1299 38.0719 35.1811L37.1789 35.5882C37.0664 35.6395 36.9258 35.6023 36.866 35.5058L35.8711 33.8984L35.4281 34.1005C35.3156 34.1518 35.175 34.1146 35.1152 34.0181L34.8785 33.6361L35.6766 35.9632C35.7117 36.0677 35.6414 36.1783 35.5195 36.2085L34.6066 36.4387C34.527 36.4588 34.4449 36.4407 34.3875 36.3964ZM42.5074 30.2233L42.5426 30.1851C42.6223 30.1007 42.7687 30.0876 42.8672 30.156L43.4988 30.5902C43.5984 30.6586 43.6137 30.7832 43.534 30.8687L42.1254 32.3745C42.0457 32.46 41.8992 32.473 41.8008 32.4047L39.334 30.7079C39.3104 30.6916 39.2907 30.6714 39.2762 30.6486C39.2616 30.6258 39.2524 30.6007 39.2492 30.5749C39.2459 30.549 39.2486 30.5229 39.2571 30.4979C39.2657 30.4729 39.2798 30.4497 39.2988 30.4294L40.6922 28.9397C40.7719 28.8552 40.9172 28.8422 41.0168 28.9105L41.5945 29.4503C41.6625 29.5136 41.6719 29.6051 41.6273 29.6765C41.6648 29.6648 41.7052 29.6616 41.7446 29.667C41.7839 29.6725 41.821 29.6865 41.8523 29.7077L42.4254 30.1017C42.4711 30.1329 42.498 30.1771 42.5074 30.2233Z" fill="black"/>
<path id="Vector_6" d="M17.8938 31.382L18.0028 31.3117L17.8457 31.1357L18.4598 30.7306L19.2016 31.5599L17.8621 32.4435C17.5004 32.2521 17.1824 32.0059 16.9235 31.7168C16.5719 31.3237 16.4407 30.9819 16.5321 30.6884C16.5789 30.5366 16.6668 30.3949 16.7946 30.2632C16.9235 30.1305 17.1016 29.9898 17.3301 29.839C17.5586 29.6882 17.7637 29.5776 17.9454 29.5073C18.127 29.4369 18.311 29.4037 18.4985 29.4078C18.8582 29.4108 19.2321 29.6299 19.6211 30.0632C19.7008 30.1526 19.7946 30.2753 19.9024 30.4331C20.009 30.5909 20.0793 30.7115 20.1121 30.796L19.4067 31.0975C19.2766 30.8864 19.1454 30.7065 19.0106 30.5557C18.8758 30.4059 18.768 30.3094 18.6871 30.2662C18.6051 30.223 18.5243 30.228 18.4446 30.2813L17.309 31.0292L17.5129 31.2564C17.5868 31.3388 17.6512 31.3931 17.7051 31.4172C17.759 31.4413 17.8211 31.4303 17.8938 31.382ZM21.3121 31.5951L19.8262 33.1814L20.1063 33.3744C20.2059 33.4427 20.2844 33.4789 20.3418 33.4839C20.3981 33.487 20.4625 33.4518 20.534 33.3744L21.8524 31.9671L22.6411 32.5109L21.5289 33.6981C21.3496 33.8901 21.1903 34.0348 21.0508 34.1313C20.9125 34.2288 20.7661 34.2911 20.6102 34.3183C20.4567 34.3444 20.295 34.3273 20.1286 34.264C19.9621 34.2017 19.7711 34.0951 19.5532 33.9443C19.334 33.7936 19.1723 33.6568 19.0668 33.5312C18.9602 33.4065 18.9063 33.2769 18.9039 33.1412C18.9004 33.0055 18.9403 32.8698 19.0211 32.732C19.1008 32.5953 19.2321 32.4305 19.4114 32.2385L20.5235 31.0513L21.3121 31.5951ZM22.3528 35.3838L21.3825 35.0008L23.4461 32.8295L24.8664 33.3895L24.2922 36.1478L23.3219 35.7658L23.4262 35.3336L22.668 35.034L22.3528 35.3838ZM23.7262 33.8569L23.1684 34.4731L23.5914 34.639L23.7766 33.877L23.7262 33.8569ZM27.9051 36.8344L26.8071 36.6776L26.5516 35.8241L26.3371 35.793L26.1836 36.5891L25.1852 36.4474L25.7032 33.7714L27.2746 33.9956C27.9895 34.0971 28.2871 34.461 28.1664 35.0853C28.0832 35.5135 27.8746 35.7749 27.5383 35.8673L27.9051 36.8344ZM26.568 34.5987L26.4649 35.1335L26.6946 35.1667C26.8141 35.1838 26.9032 35.1858 26.9629 35.1717C27.0215 35.1587 27.059 35.1124 27.0731 35.036L27.1071 34.8601C27.1223 34.7827 27.1036 34.7294 27.0543 34.7003C27.0028 34.6711 26.9172 34.649 26.7977 34.6319L26.568 34.5987ZM29.7239 36.8746L28.6563 36.8897L29.4227 34.1665L30.9848 34.1434L31.8578 36.8434L30.7903 36.8595L30.6661 36.4313L29.8317 36.4433L29.7239 36.8746ZM30.1926 34.9888L30.0004 35.7507L30.4645 35.7437L30.2477 34.9878L30.1926 34.9888ZM34.5426 36.2483L33.4832 35.5115C33.4469 35.4874 33.4082 35.425 33.3661 35.3235L33.3473 35.3285L33.7317 36.4534L32.7602 36.6977L31.8696 34.0951L32.7813 33.8659L33.8407 34.6028C33.877 34.6269 33.9168 34.6892 33.9578 34.7897L33.9778 34.7857L33.5922 33.6609L34.5625 33.4166L35.4543 36.0181L34.5426 36.2483ZM37.5098 32.9281L36.8606 33.2236L37.9633 35.0059L37.0703 35.413L35.9676 33.6297L35.3196 33.9252L34.9399 33.3121L37.1289 32.3149L37.5098 32.9281ZM40.1418 32.3048L39.3895 32.8848L39.6461 33.1301L40.5672 32.4204L41.1086 32.9371L39.434 34.2278L37.3211 32.2093L38.977 30.9337L39.4235 31.5227L38.6149 32.146L38.8996 32.4174L39.6508 31.8374L40.1418 32.3048ZM42.2805 30.2552L41.6477 30.9327L41.9477 31.1388L42.7235 30.3094L43.3539 30.7437L41.9453 32.2505L39.4797 30.5537L40.8719 29.064L41.4239 29.5827L40.7442 30.3104L41.0758 30.5386L41.7075 29.8621L42.2805 30.2552Z" fill="white"/>
<path id="Vector_7" d="M29.9014 12.9102C32.9881 12.9102 35.7854 13.9847 37.8092 15.7208C39.8354 17.4598 41.0869 19.8593 41.0869 22.5061C41.0869 25.1528 39.8353 27.5523 37.8103 29.2893C35.7842 31.0274 32.9881 32.1009 29.9014 32.1009C26.8146 32.1009 24.0186 31.0264 21.9936 29.2913C19.9686 27.5533 18.7158 25.1548 18.7158 22.5061C18.7158 19.8573 19.9686 17.4588 21.9924 15.7228C24.0186 13.9847 26.8146 12.9102 29.9014 12.9102Z" fill="black"/>
<path id="Vector_8" fill-rule="evenodd" clip-rule="evenodd" d="M29.9014 13.3486C35.7982 13.3486 40.5783 17.449 40.5783 22.5063C40.5783 27.5646 35.7982 31.6639 29.9014 31.6639C24.0057 31.6639 19.2256 27.5646 19.2256 22.5063C19.2256 17.449 24.0057 13.3486 29.9014 13.3486Z" fill="url(#paint2_linear_160_85)"/>
<path id="Vector_9" fill-rule="evenodd" clip-rule="evenodd" d="M59.2699 28.5857L50.9508 32.1914C51.0551 30.0985 51.7043 29.2732 52.7355 28.5917L7.10859 28.5927C8.18789 29.3496 8.97539 30.4614 8.87695 32.2035L0.751172 28.5897C0.329297 28.5535 0 28.2479 0 27.878C0 27.8287 0.00585937 27.7805 0.0164062 27.7352L1.86445 16.923C1.99102 16.1862 2.63789 15.582 3.54023 15.582H56.4644C57.3562 15.582 58.0125 16.1922 58.1367 16.921L59.9906 27.7744C60.0574 28.1645 59.7422 28.5273 59.2875 28.5846L59.2699 28.5857Z" fill="#2A2A2A"/>
<path id="Vector_10" fill-rule="evenodd" clip-rule="evenodd" d="M3.53984 16.2969H56.4641C56.9305 16.2969 57.248 16.6467 57.3125 17.0247L59.1664 27.8781H0.833984L2.68789 17.0267C2.75586 16.6286 3.07227 16.2969 3.53984 16.2969Z" fill="url(#paint3_linear_160_85)"/>
<path id="Vector_11" d="M8.05996 24.3888H6.26465L6.59043 19.7849H8.83223L9.50137 22.1271H9.5623L10.2314 19.7849H12.4732L12.8002 24.3888H11.0049L10.9018 22.1572H10.842L10.1893 24.3888H8.87559L8.21348 22.1572H8.16191L8.05996 24.3888ZM13.1225 22.0909C13.1225 21.2505 13.3053 20.6383 13.6709 20.2523C14.0377 19.8663 14.6998 19.6743 15.6549 19.6743C16.6111 19.6743 17.2732 19.8663 17.6389 20.2523C18.0057 20.6383 18.1885 21.2505 18.1885 22.0909C18.1885 22.5081 18.1498 22.8589 18.0725 23.1444C17.9951 23.4288 17.8627 23.6771 17.6728 23.8882C17.4842 24.0993 17.224 24.2541 16.8912 24.3516C16.5596 24.4502 16.1482 24.4994 15.6549 24.4994C15.1627 24.4994 14.7514 24.4502 14.4186 24.3516C14.0869 24.2541 13.8256 24.0993 13.6369 23.8882C13.4482 23.6771 13.3146 23.4288 13.2373 23.1444C13.16 22.8589 13.1225 22.5081 13.1225 22.0909ZM14.9682 21.3239V23.2399H15.6807C15.915 23.2399 16.0861 23.2157 16.1916 23.1695C16.2982 23.1233 16.351 23.0167 16.351 22.8498V20.9339H15.6291C15.4006 20.9339 15.233 20.958 15.1264 21.0042C15.0209 21.0505 14.9682 21.157 14.9682 21.3239ZM21.8775 24.3888L20.5639 22.7533C20.5182 22.699 20.4889 22.5814 20.4783 22.3995H20.4432V24.3888H18.7252V19.7849H20.34L21.6537 21.4204C21.6994 21.4737 21.7287 21.5923 21.7404 21.7742H21.7744V19.7849H23.4924V24.3888H21.8775ZM27.7217 22.6498H26.0049V23.2107H28.1084V24.3888H24.2869V19.7849H28.0662L27.8506 20.963H26.0049V21.5822H27.7217V22.6498ZM30.2436 19.7849L30.7158 21.4053H30.7756L31.2561 19.7849H33.1545L31.6088 23.1363V24.3888H29.8908V23.1363L28.3451 19.7849H30.2436ZM34.7436 24.3888V19.7849H37.5256C38.0412 19.7849 38.4092 19.8703 38.6295 20.0422C38.8498 20.2141 38.96 20.4654 38.96 20.7941C38.96 21.1228 38.8896 21.3772 38.749 21.5561C38.6096 21.736 38.4221 21.8526 38.1865 21.9059V21.9502C38.8803 22.0537 39.226 22.4588 39.226 23.1655C39.226 23.5344 39.1123 23.8299 38.8826 24.0531C38.6541 24.2773 38.3014 24.3888 37.8268 24.3888H34.7436ZM37.1307 22.5553H36.4615V23.3062H37.1225C37.3627 23.3062 37.4834 23.1805 37.4834 22.9302C37.4834 22.6799 37.3662 22.5553 37.1307 22.5553ZM37.0018 20.7941H36.4615V21.4787H36.9936C37.2115 21.4787 37.3193 21.3651 37.3193 21.1359C37.3193 20.9077 37.2139 20.7941 37.0018 20.7941ZM41.0435 24.3888H39.2307L40.6217 19.7849H43.276L44.667 24.3888H42.8553L42.6572 23.66H41.2404L41.0435 24.3888ZM41.9025 21.1992L41.5498 22.4879H42.3396L41.9963 21.1992H41.9025ZM48.4943 23.07L48.6221 24.3074C48.2611 24.4351 47.8088 24.4994 47.265 24.4994C46.7213 24.4994 46.2853 24.4502 45.9561 24.3516C45.6268 24.2541 45.3678 24.0993 45.1791 23.8882C44.9893 23.6771 44.858 23.4288 44.783 23.1444C44.7092 22.8589 44.6717 22.5081 44.6717 22.0909C44.6717 21.6727 44.7092 21.3209 44.783 21.0334C44.858 20.7459 44.9893 20.4966 45.1791 20.2855C45.5447 19.8784 46.2186 19.6743 47.1971 19.6743C47.4139 19.6743 47.6705 19.6924 47.9658 19.7296C48.26 19.7658 48.4791 19.812 48.6221 19.8663L48.3654 20.9932C47.9928 20.9238 47.6518 20.8896 47.3424 20.8896C47.0342 20.8896 46.8186 20.9148 46.699 20.963C46.5783 21.0123 46.5186 21.1108 46.5186 21.2586V23.1886C46.7412 23.2278 46.9674 23.2469 47.1971 23.2469C47.6834 23.2469 48.1158 23.1886 48.4943 23.07ZM50.8768 22.3854V24.3888H49.1588V19.7849H50.8768V21.6637H50.9107C50.9225 21.5159 50.9518 21.3983 50.9975 21.3098L51.8389 19.7849H53.6939L52.4061 22.0467L53.7373 24.3888H51.8822L50.9975 22.7393C50.9518 22.6498 50.9225 22.5322 50.9107 22.3854H50.8768Z" fill="black"/>
<path id="Vector_12" d="M37.9439 9.33264L37.7552 10.6796L39.0524 11.4627C39.1075 11.4939 39.1239 11.5572 39.0899 11.6065C39.0724 11.6336 39.0407 11.6527 39.0032 11.6587L37.4482 11.9201L36.9806 13.2178C36.9771 13.2259 36.9735 13.2329 36.9689 13.241C36.9396 13.2852 36.8786 13.3053 36.8212 13.2892C36.8127 13.2877 36.8047 13.2846 36.7978 13.2802C36.7755 13.2701 36.7579 13.254 36.7462 13.2339L35.9763 12.0508L34.3919 12.0719C34.3685 12.0729 34.3462 12.0669 34.3263 12.0578C34.3074 12.0483 34.2916 12.0349 34.2805 12.0187C34.2695 12.0025 34.2634 11.9841 34.263 11.9653C34.263 11.9462 34.2677 11.9261 34.2794 11.909C34.2839 11.9018 34.2899 11.8954 34.297 11.8899L35.3751 10.8938L34.8607 9.60707C34.8501 9.57691 34.8536 9.54475 34.8724 9.51761C34.8876 9.49549 34.911 9.4774 34.9403 9.46935C34.9732 9.46031 35.0095 9.46433 35.0388 9.4784L36.472 10.0484L37.7399 9.23212C37.781 9.20699 37.8349 9.20397 37.8806 9.22609C37.9239 9.2472 37.9497 9.28942 37.9439 9.33264ZM30.0196 7.56244L30.6407 8.80892L32.2204 8.92955C32.2453 8.93157 32.269 8.93982 32.2885 8.95329C32.308 8.96676 32.3225 8.98484 32.3301 9.0053C32.3377 9.02575 32.3381 9.04767 32.3313 9.06834C32.3246 9.08901 32.3108 9.10751 32.2919 9.12155L31.0966 10.0142L31.4493 11.3401C31.4517 11.3481 31.4528 11.3552 31.4528 11.3632C31.4528 11.4145 31.4107 11.4587 31.3532 11.4698C31.3439 11.4708 31.3357 11.4718 31.3274 11.4718C31.3017 11.4718 31.2771 11.4657 31.256 11.4537L29.9001 10.7591L28.5396 11.4577C28.5106 11.4723 28.476 11.4767 28.4434 11.4697C28.4107 11.4627 28.3826 11.4451 28.365 11.4205C28.3481 11.3959 28.3431 11.3668 28.3509 11.3391L28.7036 10.0142L27.5095 9.12155C27.4814 9.09943 27.4661 9.07028 27.4661 9.03912C27.4661 9.01198 27.4767 8.98685 27.4966 8.96775C27.5212 8.94664 27.554 8.93457 27.588 8.93357L29.1607 8.81294L29.7841 7.56244C29.804 7.52223 29.8509 7.49609 29.9013 7.49609C29.9517 7.49609 29.9985 7.52223 30.0196 7.56244ZM22.0626 9.23212L23.3282 10.0443L24.7673 9.47237C24.796 9.46081 24.8287 9.45884 24.859 9.46683C24.8894 9.47482 24.9152 9.4922 24.9314 9.5156C24.9489 9.54475 24.9536 9.57691 24.9396 9.60707L24.4251 10.8938L25.5044 11.8899C25.5103 11.896 25.515 11.902 25.5196 11.909C25.5501 11.9533 25.5396 12.0086 25.4962 12.0437C25.4892 12.0478 25.4821 12.0528 25.4739 12.0568C25.454 12.0679 25.4282 12.0729 25.4036 12.0719L23.8239 12.0518L23.0517 13.24C23.0411 13.2571 23.0247 13.2721 23.0048 13.2812C22.965 13.3003 22.9181 13.3003 22.8806 13.2822C22.8607 13.2731 22.8431 13.2581 22.8314 13.242C22.8267 13.2339 22.8232 13.2269 22.8196 13.2178L22.3532 11.9201L20.7982 11.6577C20.763 11.6517 20.7314 11.6326 20.7126 11.6055C20.6985 11.5823 20.6927 11.5562 20.6985 11.5311C20.7067 11.5019 20.7278 11.4778 20.756 11.4627L22.0485 10.6817L21.8587 9.33264C21.8528 9.28942 21.8786 9.2472 21.922 9.22609C21.9665 9.20297 22.0216 9.20598 22.0626 9.23212Z" fill="#FCF6E2"/>
</g>
<defs>
<linearGradient id="paint0_linear_160_85" x1="4.20344" y1="22.8851" x2="55.6195" y2="22.8796" gradientUnits="userSpaceOnUse">
<stop stop-color="#FECA47"/>
<stop offset="0.165" stop-color="#FED04F"/>
<stop offset="0.259" stop-color="#FED757"/>
<stop offset="0.69" stop-color="#E4B231"/>
<stop offset="1" stop-color="#E0AD2E"/>
</linearGradient>
<linearGradient id="paint1_linear_160_85" x1="12.2639" y1="21.3512" x2="47.0287" y2="21.3457" gradientUnits="userSpaceOnUse">
<stop stop-color="#454545"/>
<stop offset="0.82" stop-color="#353535"/>
<stop offset="1" stop-color="#252525"/>
</linearGradient>
<linearGradient id="paint2_linear_160_85" x1="29.9014" y1="13.3486" x2="29.9048" y2="31.2105" gradientUnits="userSpaceOnUse">
<stop stop-color="#FCDB6F"/>
<stop offset="1" stop-color="#E8BA40"/>
</linearGradient>
<linearGradient id="paint3_linear_160_85" x1="0.833984" y1="21.7774" x2="89.525" y2="21.7719" gradientUnits="userSpaceOnUse">
<stop stop-color="white"/>
<stop offset="0.631" stop-color="#F3F3F3"/>
<stop offset="1" stop-color="#E6E6E6"/>
</linearGradient>
<clipPath id="clip0_160_85">
<rect width="60" height="45" fill="white"/>
</clipPath>
</defs>
</svg>
