<svg width="105" height="24" viewBox="0 0 105 24" fill="none" xmlns="http://www.w3.org/2000/svg">
<path d="M10.6821 2L13.0293 8.90983H20.625L14.4799 13.1803L16.8271 20.0902L10.6821 15.8197L4.53706 20.0902L6.88425 13.1803L0.739221 8.90983H8.33489L10.6821 2Z" fill="white" fill-opacity="0.7"/>
<path d="M31.5913 2L33.9385 8.90983H41.5341L35.3891 13.1803L37.7363 20.0902L31.5913 15.8197L25.4462 20.0902L27.7934 13.1803L21.6484 8.90983H29.2441L31.5913 2Z" fill="white" fill-opacity="0.7"/>
<path d="M52.5004 2L54.8476 8.90983H62.4433L56.2983 13.1803L58.6455 20.0902L52.5004 15.8197L46.3554 20.0902L48.7026 13.1803L42.5576 8.90983H50.1533L52.5004 2Z" fill="white" fill-opacity="0.7"/>
<path d="M73.4086 2L75.7558 8.90983H83.3515L77.2065 13.1803L79.5537 20.0902L73.4086 15.8197L67.2636 20.0902L69.6108 13.1803L63.4658 8.90983H71.0615L73.4086 2Z" fill="white" fill-opacity="0.7"/>
<path d="M94.3178 2L96.665 8.90983H104.261L98.1157 13.1803L100.463 20.0902L94.3178 15.8197L88.1728 20.0902L90.52 13.1803L84.375 8.90983H91.9706L94.3178 2Z" fill="white" fill-opacity="0.7"/>
</svg>
